<svg width="4" height="12" viewBox="0 0 4 12" fill="none" xmlns="http://www.w3.org/2000/svg">
<path d="M2 9C2.39782 9 2.77936 9.15804 3.06066 9.43934C3.34196 9.72064 3.5 10.1022 3.5 10.5C3.5 10.8978 3.34196 11.2794 3.06066 11.5607C2.77936 11.842 2.39782 12 2 12C1.60218 12 1.22064 11.842 0.93934 11.5607C0.658036 11.2794 0.5 10.8978 0.5 10.5C0.5 10.1022 0.658036 9.72064 0.93934 9.43934C1.22064 9.15804 1.60218 9 2 9ZM2 4.5C2.39782 4.5 2.77936 4.65804 3.06066 4.93934C3.34196 5.22064 3.5 5.60218 3.5 6C3.5 6.39782 3.34196 6.77936 3.06066 7.06066C2.77936 7.34196 2.39782 7.5 2 7.5C1.60218 7.5 1.22064 7.34196 0.93934 7.06066C0.658036 6.77936 0.5 6.39782 0.5 6C0.5 5.60218 0.658036 5.22064 0.93934 4.93934C1.22064 4.65804 1.60218 4.5 2 4.5ZM2 0C2.39782 0 2.77936 0.158035 3.06066 0.43934C3.34196 0.720644 3.5 1.10218 3.5 1.5C3.5 1.89782 3.34196 2.27936 3.06066 2.56066C2.77936 2.84196 2.39782 3 2 3C1.60218 3 1.22064 2.84196 0.93934 2.56066C0.658036 2.27936 0.5 1.89782 0.5 1.5C0.5 1.10218 0.658036 0.720644 0.93934 0.43934C1.22064 0.158035 1.60218 0 2 0Z" fill="black"/>
</svg>
